<svg width="94" height="94" viewBox="0 0 94 94" fill="none" xmlns="http://www.w3.org/2000/svg">
<circle cx="47" cy="47" r="47" fill="#2E78B6"/>
<path d="M28.5977 34.5566V28.209H35.458V34.5566H28.5977ZM28.5977 64V38.0723H35.458V64H28.5977ZM66.5977 64H59.7373V50.7676C59.7373 47.9681 59.5908 46.1615 59.2979 45.3477C59.0049 44.5176 58.5247 43.8747 57.8574 43.4189C57.2064 42.9632 56.417 42.7354 55.4893 42.7354C54.3011 42.7354 53.235 43.0609 52.291 43.7119C51.347 44.363 50.696 45.2256 50.3379 46.2998C49.9961 47.374 49.8252 49.3597 49.8252 52.2568V64H42.9648V38.0723H49.3369V41.8809C51.5993 38.9512 54.4476 37.4863 57.8818 37.4863C59.3955 37.4863 60.779 37.763 62.0322 38.3164C63.2855 38.8535 64.2295 39.5452 64.8643 40.3916C65.5153 41.238 65.9629 42.1982 66.207 43.2725C66.4674 44.3467 66.5977 45.8848 66.5977 47.8867V64Z" fill="white"/>
</svg>
